<svg width="33" height="32" viewBox="0 0 33 32" fill="none" xmlns="http://www.w3.org/2000/svg">
<path d="M15.1671 21.5663V6.66634C15.1671 6.28856 15.2948 5.9719 15.5504 5.71634C15.8059 5.46079 16.1226 5.33301 16.5004 5.33301C16.8782 5.33301 17.1948 5.46079 17.4504 5.71634C17.7059 5.9719 17.8337 6.28856 17.8337 6.66634V21.5663L24.3671 15.033C24.6337 14.7663 24.9448 14.6386 25.3004 14.6497C25.6559 14.6608 25.9671 14.7997 26.2337 15.0663C26.4782 15.333 26.6059 15.6441 26.6171 15.9997C26.6282 16.3552 26.5004 16.6663 26.2337 16.933L17.4337 25.733C17.3004 25.8663 17.1559 25.9608 17.0004 26.0163C16.8448 26.0719 16.6782 26.0997 16.5004 26.0997C16.3226 26.0997 16.1559 26.0719 16.0004 26.0163C15.8448 25.9608 15.7004 25.8663 15.5671 25.733L6.76706 16.933C6.52261 16.6886 6.40039 16.383 6.40039 16.0163C6.40039 15.6497 6.52261 15.333 6.76706 15.0663C7.03372 14.7997 7.35039 14.6663 7.71706 14.6663C8.08372 14.6663 8.40039 14.7997 8.66706 15.0663L15.1671 21.5663Z" fill="#5B5B5B"/>
</svg>
