<svg width="32" height="32" viewBox="0 0 32 32" fill="none" xmlns="http://www.w3.org/2000/svg">
<path d="M15.9991 17.8667L9.46575 24.4001C9.22131 24.6445 8.9102 24.7667 8.53242 24.7667C8.15464 24.7667 7.84353 24.6445 7.59909 24.4001C7.35464 24.1556 7.23242 23.8445 7.23242 23.4667C7.23242 23.089 7.35464 22.7778 7.59909 22.5334L14.1324 16.0001L7.59909 9.46673C7.35464 9.22229 7.23242 8.91118 7.23242 8.5334C7.23242 8.15562 7.35464 7.84451 7.59909 7.60007C7.84353 7.35562 8.15464 7.2334 8.53242 7.2334C8.9102 7.2334 9.22131 7.35562 9.46575 7.60007L15.9991 14.1334L22.5324 7.60007C22.7769 7.35562 23.088 7.2334 23.4658 7.2334C23.8435 7.2334 24.1546 7.35562 24.3991 7.60007C24.6435 7.84451 24.7658 8.15562 24.7658 8.5334C24.7658 8.91118 24.6435 9.22229 24.3991 9.46673L17.8658 16.0001L24.3991 22.5334C24.6435 22.7778 24.7658 23.089 24.7658 23.4667C24.7658 23.8445 24.6435 24.1556 24.3991 24.4001C24.1546 24.6445 23.8435 24.7667 23.4658 24.7667C23.088 24.7667 22.7769 24.6445 22.5324 24.4001L15.9991 17.8667Z" fill="black"/>
</svg>
